<svg width="32" height="32" viewBox="0 0 32 32" fill="none" xmlns="http://www.w3.org/2000/svg">
<path d="M27.869 17.6641C27.517 17.6641 27.149 17.5517 26.797 17.4714C26.084 17.3115 25.383 17.1023 24.7 16.8451C23.957 16.5741 23.14 16.5882 22.407 16.8846C21.674 17.1811 21.077 17.739 20.729 18.4509L20.377 19.1896C18.822 18.3051 17.386 17.2259 16.102 15.978C14.858 14.6907 13.782 13.25 12.9 11.6904L13.637 11.3532C14.347 11.0046 14.903 10.405 15.198 9.6698C15.494 8.9346 15.508 8.1157 15.238 7.3707C14.983 6.6787 14.775 5.9706 14.613 5.2511C14.533 4.8978 14.469 4.5284 14.421 4.1751C14.227 3.044 13.636 2.0197 12.756 1.2867C11.875 0.553601 10.762 0.160001 9.618 0.176601H4.799C4.122 0.175801 3.45298 0.3184 2.83498 0.5951C2.21698 0.8718 1.664 1.2765 1.213 1.7825C0.753005 2.3022 0.41 2.9158 0.208 3.581C0.00599976 4.2463 -0.0500017 4.9475 0.0439983 5.6365C0.914998 12.3201 3.95899 18.5291 8.70599 23.3005C13.463 28.0615 19.653 31.1151 26.317 31.9881C26.524 32.004 26.733 32.004 26.941 31.9881C28.121 31.9898 29.261 31.5553 30.143 30.7676C30.647 30.3151 31.051 29.7606 31.327 29.1407C31.603 28.5208 31.745 27.8494 31.744 27.1706V22.3531C31.735 21.2435 31.345 20.171 30.639 19.3166C29.933 18.4623 28.955 17.8786 27.869 17.6641ZM28.654 27.299C28.653 27.5231 28.606 27.7446 28.515 27.9493C28.424 28.1539 28.291 28.3372 28.126 28.4874C27.95 28.6477 27.741 28.7669 27.514 28.8363C27.287 28.9058 27.048 28.9237 26.813 28.8888C20.838 28.1062 15.286 25.3753 11.011 21.1166C6.73198 16.825 3.98599 11.2366 3.19799 5.2189C3.16399 4.9834 3.181 4.7431 3.251 4.5153C3.32 4.2876 3.43899 4.0782 3.59899 3.9022C3.74999 3.7338 3.93499 3.5995 4.14199 3.5082C4.34899 3.4168 4.573 3.3705 4.799 3.3722H9.60198C9.97198 3.3632 10.334 3.483 10.626 3.7114C10.918 3.9398 11.122 4.2625 11.203 4.6248C11.203 5.0584 11.347 5.508 11.443 5.9416C11.628 6.7828 11.875 7.6093 12.18 8.4145L9.93798 9.4744C9.55298 9.6518 9.25398 9.9752 9.10598 10.3736C8.94598 10.7646 8.94598 11.2031 9.10598 11.5941C11.41 16.5444 15.377 20.5237 20.313 22.8348C20.703 22.9955 21.14 22.9955 21.53 22.8348C21.927 22.6865 22.249 22.3862 22.426 21.9998L23.435 19.7517C24.261 20.0538 25.106 20.3005 25.964 20.4903C26.381 20.5867 26.829 20.667 27.261 20.7312C27.622 20.8128 27.944 21.0174 28.172 21.3102C28.399 21.603 28.519 21.9658 28.51 22.337L28.654 27.299ZM19.208 0C18.84 0 18.456 0 18.087 0C17.663 0.0362 17.27 0.240098 16.995 0.566898C16.721 0.893598 16.586 1.3164 16.623 1.7423C16.659 2.1682 16.862 2.5623 17.188 2.8378C17.513 3.1134 17.935 3.2479 18.36 3.2117H19.208C21.756 3.2117 24.199 4.2268 26.001 6.0337C27.802 7.8406 28.814 10.2913 28.814 12.8466C28.814 13.1357 28.814 13.4086 28.814 13.6977C28.779 14.1213 28.912 14.5418 29.185 14.8669C29.458 15.192 29.849 15.3952 30.271 15.432H30.399C30.8 15.4336 31.187 15.2844 31.483 15.0139C31.779 14.7433 31.964 14.3711 32 13.9707C32 13.6013 32 13.2159 32 12.8466C32 9.4423 30.653 6.1771 28.254 3.7684C25.856 1.3596 22.602 0.0043 19.208 0ZM22.41 12.8466C22.41 13.2725 22.579 13.6809 22.879 13.9821C23.179 14.2833 23.586 14.4524 24.011 14.4524C24.436 14.4524 24.843 14.2833 25.143 13.9821C25.443 13.6809 25.612 13.2725 25.612 12.8466C25.612 11.143 24.937 9.5092 23.736 8.3046C22.535 7.1 20.907 6.4233 19.208 6.4233C18.784 6.4233 18.376 6.5925 18.076 6.8936C17.776 7.1948 17.607 7.6032 17.607 8.0291C17.607 8.455 17.776 8.8635 18.076 9.1646C18.376 9.4658 18.784 9.635 19.208 9.635C20.057 9.635 20.872 9.9733 21.472 10.5756C22.073 11.1779 22.41 11.9948 22.41 12.8466Z" fill="black"/>
</svg>
