<svg width="100" height="47" viewBox="0 0 100 47" fill="none" xmlns="http://www.w3.org/2000/svg">
<path d="M76.5 0H23.5C10.5213 0 0 10.5213 0 23.5C0 36.4787 10.5213 47 23.5 47H76.5C89.4787 47 100 36.4787 100 23.5C100 10.5213 89.4787 0 76.5 0Z" fill="white"/>
<path d="M55.5606 10.3307C55.5644 10.277 55.5644 10.2232 55.5606 10.1695C55.5374 9.0564 55.0693 7.9965 54.2566 7.2171C53.4439 6.4377 52.3512 6.0007 51.213 6C50.0748 5.9993 48.9815 6.4348 48.1678 7.2132C47.354 7.9916 46.8844 9.0508 46.8598 10.1639C47.1946 12.2662 48.0738 12.9287 48.7575 14.4842L39.2421 14.3011L39.0568 23.5304C37.2536 22.843 35.9585 21.6074 34.4288 21.5787C34.3735 21.5752 34.318 21.5752 34.2627 21.5787C33.125 21.601 32.0416 22.0585 31.2447 22.853C30.4478 23.6475 30.001 24.7158 30 25.8288C29.999 26.9417 30.4439 28.0108 31.2393 28.8066C32.0348 29.6025 33.1174 30.0619 34.255 30.0862C36.5316 29.74 37.1565 28.7938 38.9622 28.1145L38.7705 37.5432L48.3275 37.7269C47.6425 36.1083 46.7333 35.4608 46.3927 33.3197C46.4173 32.2068 46.8867 31.1477 47.7003 30.3694C48.5139 29.591 49.6069 29.1555 50.745 29.1562C51.883 29.1568 52.9755 29.5936 53.7882 30.3729C54.6009 31.1521 55.069 32.2118 55.0922 33.3247C55.0954 33.3786 55.0954 33.4327 55.0922 33.4866C55.0634 34.924 53.8941 36.1551 53.1753 37.82L62.5329 38L63 14.7517L53.6769 14.5729C54.4028 12.9555 55.5324 11.7456 55.5606 10.3307Z" fill="black"/>
</svg>
