<svg
        width="320"
        height="128"
        viewBox="0 0 320 128"
        fill="none"
        xmlns="http://www.w3.org/2000/svg"
      >
        <!-- <rect y="33" width="100" height="47" rx="23.5" fill="white" /> -->
        <path
          d="M55.5606 43.3307C55.5644 43.277 55.5644 43.2232 55.5606 43.1695C55.5374 42.0564 55.0693 40.9965 54.2566 40.2171C53.4439 39.4377 52.3512 39.0007 51.213 39C50.0748 38.9993 48.9815 39.4348 48.1678 40.2132C47.354 40.9916 46.8844 42.0508 46.8598 43.1639C47.1946 45.2662 48.0738 45.9287 48.7575 47.4842L39.2421 47.3011L39.0568 56.5304C37.2536 55.843 35.9585 54.6074 34.4288 54.5787C34.3735 54.5752 34.318 54.5752 34.2627 54.5787C33.125 54.601 32.0416 55.0585 31.2447 55.853C30.4478 56.6475 30.001 57.7158 30 58.8288C29.999 59.9417 30.4439 61.0108 31.2393 61.8066C32.0348 62.6025 33.1174 63.0619 34.255 63.0862C36.5316 62.74 37.1565 61.7938 38.9622 61.1145L38.7705 70.5432L48.3275 70.7269C47.6425 69.1083 46.7333 68.4608 46.3927 66.3197C46.4173 65.2068 46.8867 64.1477 47.7003 63.3694C48.5139 62.591 49.6069 62.1555 50.745 62.1562C51.883 62.1568 52.9755 62.5936 53.7882 63.3729C54.6009 64.1521 55.069 65.2118 55.0922 66.3247C55.0954 66.3786 55.0954 66.4327 55.0922 66.4866C55.0634 67.924 53.8941 69.1551 53.1753 70.82L62.5329 71L63 47.7517L53.6769 47.5729C54.4028 45.9555 55.5324 44.7456 55.5606 43.3307Z"
          fill="black"
        />
      </svg>