<svg width="100" height="47" viewBox="0 0 100 47" fill="none" xmlns="http://www.w3.org/2000/svg">
<path d="M76.5 0H23.5C10.5213 0 0 10.5213 0 23.5C0 36.4787 10.5213 47 23.5 47H76.5C89.4787 47 100 36.4787 100 23.5C100 10.5213 89.4787 0 76.5 0Z" fill="white"/>
<path d="M60.439 7.416C59.578 6.4979 58.378 5.3334 56.731 4.471C55.137 3.6364 53.545 3.2096 51.405 3.0423C51.046 3.0142 50.684 3 50.33 3C45.902 3 42.828 5.1446 41.029 6.9437C39.017 8.9549 36.692 12.3549 37.034 17.1315C37.287 20.6591 39.308 23.432 40.931 25.6601L41 25.7555C41.29 26.1527 41.591 26.5417 41.91 26.9545C42.914 28.2508 43.952 29.5912 44.697 31.2939L44.783 31.4888C45.088 32.1799 45.466 33.0399 45.421 33.4825C45.388 33.7989 45.251 33.9535 45.093 34.1325C44.874 34.3811 44.601 34.6905 44.776 35.3533C45.004 36.2135 46.088 36.2135 47.343 36.2135H53.885C54.92 36.2135 55.991 36.2135 56.219 35.353C56.391 34.7055 56.092 34.3425 55.852 34.051C55.716 33.8861 55.599 33.7437 55.573 33.565C55.451 32.7008 56.384 30.7384 57.303 29.2808C57.884 28.3608 58.506 27.5618 59.109 26.7893C59.387 26.4322 59.651 26.0948 59.9 25.7574C60.032 25.5787 60.165 25.4001 60.299 25.2219C61.969 22.9829 63.696 20.6681 63.961 17.2264C64.336 12.3585 61.915 8.9904 60.439 7.416ZM57.948 24.0183C57.828 24.1762 57.709 24.3337 57.59 24.491C57.382 24.7668 57.174 25.0406 56.965 25.3123C55.09 27.7624 53.318 30.0798 52.903 33.6043H48.088C47.571 29.8779 45.765 27.5013 43.854 24.9885C43.706 24.7929 43.556 24.5959 43.406 24.3976L43.151 24.0605C41.663 22.0972 39.976 19.8721 39.734 17.272C39.351 13.1653 41.252 10.3649 42.913 8.7389C45.035 6.661 47.597 5.6074 50.525 5.6074C50.86 5.6074 51.203 5.6216 51.546 5.6497C56.714 6.072 60.89 10.287 61.261 15.4543C61.535 19.2897 59.711 21.6935 57.947 24.0183H57.948Z" fill="black"/>
<path d="M54.432 40.4802C54.011 40.3912 53.404 40.3514 52.462 40.3514C51.974 40.3514 51.445 40.3621 50.933 40.3725C50.426 40.3826 49.903 40.3933 49.426 40.3933C49.216 40.3933 48.998 40.3894 48.768 40.3855C48.531 40.3815 48.287 40.3774 48.046 40.3774C47.191 40.3774 45.412 40.3774 45.327 41.4984C45.303 41.8057 45.403 42.0638 45.622 42.2651C46.111 42.7138 47.095 42.7743 47.992 42.7743C48.409 42.7743 48.847 42.7588 49.271 42.7438C49.688 42.7289 50.083 42.7152 50.451 42.7152C50.716 42.7152 51.016 42.7161 51.333 42.7169C52.021 42.7188 52.785 42.7211 53.436 42.7152C54.542 42.7051 55.588 42.6957 55.668 41.691C55.744 40.7583 54.985 40.5976 54.432 40.4802Z" fill="black"/>
</svg>
